<?xml version="1.0" encoding="UTF-8" standalone="no"?><!DOCTYPE svg PUBLIC "-//W3C//DTD SVG 1.1//EN" "http://www.w3.org/Graphics/SVG/1.1/DTD/svg11.dtd"><svg width="100%" height="100%" viewBox="0 0 1132 355" version="1.1" xmlns="http://www.w3.org/2000/svg" xmlns:xlink="http://www.w3.org/1999/xlink" xml:space="preserve" xmlns:serif="http://www.serif.com/" style="fill-rule:evenodd;clip-rule:evenodd;stroke-linejoin:round;stroke-miterlimit:2;"><g id="SP"><g><path d="M0.955,250.941l0,-24.619l11.524,-0l0,-99.001l-11.524,0l0,-24.619l85.382,-0c9.428,-0 16.238,7.333 16.238,16.238l-0,115.763c-0,9.428 -7.333,16.238 -16.238,16.238l-85.382,-0Zm72.81,-123.62l-31.952,0l-0,99.001l31.952,-0l0,-99.001Z" style="fill:#e64415;fill-rule:nonzero;"/><path d="M118.813,250.941l0,-24.619l11.524,-0l-0,-99.001l-11.524,0l0,-24.619l101.096,-0l-0,42.953l-28.286,-0l-0,-18.334l-31.953,0l0,33.524l42.953,0l0,24.096l-42.953,-0l0,41.381l31.953,-0l-0,-25.143l28.286,-0l-0,49.762l-101.096,-0Z" style="fill:#e64415;fill-rule:nonzero;"/><path d="M300.052,250.941l0,-24.619l9.429,-0l-0,-40.858l-34.572,0l0,40.858l8.905,-0l-0,24.619l-49.762,-0l-0,-24.619l11.524,-0l-0,-99.001l-11.524,0l-0,-24.619l86.953,-0c9.428,-0 16.238,7.333 16.238,16.238l-0,38.238c-0,6.81 -4.191,12.572 -9.953,15.191c6.81,2.095 11.524,8.381 11.524,15.714l0,38.239l11,-0l0,24.619l-49.762,-0Zm7.857,-123.62l-33,0l0,34.048l33,-0l0,-34.048Z" style="fill:#e64415;fill-rule:nonzero;"/><path d="M421.577,250.941c-9.429,-0 -16.239,-7.333 -16.239,-16.238l0,-33.524l29.334,-0l-0,25.143l31.952,-0l0,-40.334l-61.286,0l0,-67.048c0,-9.428 7.334,-16.238 16.239,-16.238l57.619,-0c9.429,-0 16.238,7.333 16.238,16.238l0,27.762l-29.333,0l-0,-19.381l-31.429,0l-0,34.048l61.286,-0l-0,73.334c-0,9.428 -7.333,16.238 -16.238,16.238l-58.143,-0Z" style="fill:#e64415;fill-rule:nonzero;"/><path d="M511.672,250.941l0,-24.619l11.524,-0l0,-99.001l-11.524,0l0,-24.619l86.953,-0c9.429,-0 16.238,7.333 16.238,16.238l0,55.524c0,9.429 -7.333,16.238 -16.238,16.238l-46.095,0l-0,35.62l11.524,-0l-0,24.619l-52.382,-0Zm73.858,-123.62l-33,0l-0,38.762l33,0l-0,-38.762Z" style="fill:#e64415;fill-rule:nonzero;"/><path d="M628.482,250.941l0,-24.619l11.524,-0l0,-99.001l-11.524,0l0,-24.619l52.382,-0l-0,24.619l-11.524,0l-0,99.001l11.524,-0l-0,24.619l-52.382,-0Z" style="fill:#e64415;fill-rule:nonzero;"/><path d="M694.483,250.941l-0,-24.619l11.524,-0l-0,-99.001l-11.524,0l-0,-24.619l101.096,-0l-0,42.953l-28.286,-0l-0,-18.334l-31.953,0l0,33.524l42.953,0l-0,24.096l-42.953,-0l0,41.381l31.953,-0l-0,-25.143l28.286,-0l-0,49.762l-101.096,-0Z" style="fill:#e64415;fill-rule:nonzero;"/><path d="M828.579,251.465c-9.429,-0 -16.238,-7.334 -16.238,-16.238l-0,-116.287c-0,-9.428 7.333,-16.238 16.238,-16.238l58.143,-0c9.429,-0 16.238,7.333 16.238,16.238l0,27.762l-29.333,0l-0,-19.381l-31.953,0l0,99.001l31.953,-0l-0,-37.191l-18.858,0l0,-24.095l48.191,-0l0,86.429l-74.381,-0Z" style="fill:#e64415;fill-rule:nonzero;"/><path d="M918.675,250.941l-0,-24.619l11.523,-0l0,-99.001l-11.523,0l-0,-24.619l101.095,-0l0,42.953l-28.286,-0l0,-18.334l-31.952,0l-0,33.524l42.953,0l-0,24.096l-42.953,-0l-0,41.381l31.952,-0l0,-25.143l28.286,-0l0,49.762l-101.095,-0Z" style="fill:#e64415;fill-rule:nonzero;"/><path d="M1033.91,250.941l0,-24.619l11.524,-0l0,-99.001l-11.524,0l0,-24.619l53.429,-0l0,24.619l-12.571,0l-0,99.001l28.285,-0l0,-32.477l27.239,0l-0,57.096l-96.382,-0Z" style="fill:#e64415;fill-rule:nonzero;"/></g></g></svg>