<?xml version="1.0" encoding="utf-8"?>
<!-- Generator: Adobe Illustrator 20.1.0, SVG Export Plug-In . SVG Version: 6.00 Build 0)  -->
<svg version="1.1" id="Layer_1" xmlns="http://www.w3.org/2000/svg" xmlns:xlink="http://www.w3.org/1999/xlink" x="0px" y="0px"
	 viewBox="0 0 547.2 127.6" style="enable-background:new 0 0 547.2 127.6;" xml:space="preserve">
<style type="text/css">
	.st0{fill:#DD0000;}
	.st1{fill:#FFFFFF;}
</style>
<rect class="st0" width="547.2" height="127.6"/>
<path class="st1" d="M482.8,111.3H309.5c0,0-21,1.2-21-17.6V36.3c0-22.3,21-21,21-21h175.1c21.5,0,21.1,21.1,21.1,21.1v3.5h-68.4
	v-3.8c0,0-0.8-9.8-12.5-9.8h-53c-14.4,0-14,12-14,12v48.5c0,0-1.6,13.8,13.1,13.8h53.5c12.1,0,13.3-11.9,13.3-11.9V70.6h-38.9V59.4
	h107V91C505.7,91,505.7,111.3,482.8,111.3z"/>
<polyline class="st1" points="105.7,111.5 23.3,15.3 108.2,15.3 151.2,80.2 197.5,15.3 281.5,15.3 198.1,111.5 105.7,111.5 "/>
</svg>
