<?xml version="1.0" encoding="UTF-8" standalone="no"?>
<svg width="137px" height="60px" viewBox="0 0 137 60" version="1.1" xmlns="http://www.w3.org/2000/svg" xmlns:xlink="http://www.w3.org/1999/xlink" xmlns:sketch="http://www.bohemiancoding.com/sketch/ns">
    <!-- Generator: Sketch 3.5.1 (25234) - http://www.bohemiancoding.com/sketch -->
    <title>eic.logo</title>
    <desc>Created with Sketch.</desc>
    <defs></defs>
    <g id="Page-1" stroke="none" stroke-width="1" fill="none" fill-rule="evenodd" sketch:type="MSPage">
        <g id="eic.logo" sketch:type="MSLayerGroup" transform="translate(0.000000, -1.000000)">
            <g id="Page-1" sketch:type="MSShapeGroup">
                <g id="Logo-EIC">
                    <g id="eic.logo" transform="translate(0.000000, 0.494000)">
                        <path d="M8.3151377,15.1920826 L8.3151377,13.322021 L3.2574711,13.322021 L3.2574711,8.81687263 L7.1888506,8.81687263 L7.1888506,6.96806173 L3.2574711,6.96806173 L3.2574711,2.97293013 L8.08138,2.97293013 L8.2726363,1.10286853 L0.9411448,1.10286853 L0.9411448,15.1920826 L8.3151377,15.1920826 L8.3151377,15.1920826 Z M19.176245,1.10286853 L17.136178,1.10286853 L17.136178,10.0069118 C17.136178,12.4507423 16.58366,13.5557787 14.819852,13.5557787 C13.183548,13.5557787 12.482275,12.7695028 12.482275,10.0069118 L12.482275,1.10286853 L10.165949,1.10286853 L10.165949,10.2194188 C10.165949,14.2783025 11.759751,15.4258403 14.586094,15.4258403 C17.858702,15.4258403 19.176245,13.7895364 19.176245,9.90065833 L19.176245,1.10286853 L19.176245,1.10286853 Z M30.802378,15.1920826 L27.466018,8.96562753 C29.251077,8.49811213 30.271111,7.01056313 30.271111,5.05549873 C30.271111,2.56916683 28.698559,1.10286853 25.659709,1.10286853 L21.855834,1.10286853 L21.855834,15.1920826 L24.17216,15.1920826 L24.17216,9.36939083 L25.192194,9.36939083 L28.103539,15.1920826 L30.802378,15.1920826 L30.802378,15.1920826 Z M24.17216,7.54183063 L24.17216,2.95167943 L25.468453,2.95167943 C27.083506,2.95167943 27.82728,3.75920603 27.82728,5.20425363 C27.82728,6.71305333 26.956002,7.54183063 25.468453,7.54183063 L24.17216,7.54183063 L24.17216,7.54183063 Z M36.435814,15.4258403 C39.687171,15.4258403 41.578483,12.897007 41.578483,7.98809533 C41.578483,3.27043993 40.090934,0.869110828 36.648321,0.869110828 C33.354462,0.869110828 31.46315,3.37669343 31.46315,8.30685583 C31.46315,13.0245112 32.97195,15.4258403 36.435814,15.4258403 L36.435814,15.4258403 L36.435814,15.4258403 Z M36.584569,13.534528 C34.714507,13.534528 33.928231,11.8982241 33.928231,7.98809533 C33.928231,4.39672703 34.757009,2.76042313 36.478315,2.76042313 C38.348377,2.76042313 39.134653,4.39672703 39.134653,8.30685583 C39.134653,11.8982241 38.305875,13.534528 36.584569,13.534528 L36.584569,13.534528 L36.584569,13.534528 Z M46.106882,15.1920826 L46.106882,10.1131653 L46.914409,10.1131653 C50.378273,10.1131653 52.057078,8.09434883 52.057078,5.43801133 C52.057078,2.63291893 50.463276,1.10286853 47.360674,1.10286853 L43.790556,1.10286853 L43.790556,15.1920826 L46.106882,15.1920826 L46.106882,15.1920826 Z M46.106882,8.26435443 L46.106882,2.97293013 L47.148167,2.97293013 C48.869473,2.97293013 49.591997,3.95046233 49.591997,5.56551553 C49.591997,7.30807293 48.869473,8.26435443 46.978161,8.26435443 L46.106882,8.26435443 L46.106882,8.26435443 Z M61.111876,15.1920826 L61.111876,13.322021 L56.05421,13.322021 L56.05421,8.81687263 L59.985589,8.81687263 L59.985589,6.96806173 L56.05421,6.96806173 L56.05421,2.97293013 L60.878119,2.97293013 L61.069375,1.10286853 L53.737884,1.10286853 L53.737884,15.1920826 L61.111876,15.1920826 L61.111876,15.1920826 Z M71.994235,15.1920826 C70.910449,10.4319258 69.656658,5.73552113 68.147858,1.10286853 L65.576524,1.10286853 C64.067724,5.73552113 62.835183,10.4319258 61.730147,15.1920826 L63.876467,15.1920826 C64.088975,14.0445448 64.365234,12.8545056 64.641493,11.6857171 L68.870382,11.6857171 C69.167892,12.8757563 69.40165,14.0232941 69.635407,15.1920826 L71.994235,15.1920826 L71.994235,15.1920826 Z M65.087757,9.83690623 C65.619025,7.69058553 66.150292,5.69301973 66.766563,3.56794973 C67.361582,5.71427043 67.914101,7.77558833 68.424117,9.83690623 L65.087757,9.83690623 L65.087757,9.83690623 Z M82.77034,15.1920826 L82.77034,1.10286853 L80.836526,1.10286853 L80.836526,11.2182017 L76.437631,1.10286853 L73.441282,1.10286853 L73.441282,15.1920826 L75.375096,15.1920826 L75.375096,4.09921723 L80.241507,15.1920826 L82.77034,15.1920826 L82.77034,15.1920826 Z" id="EUROPEAN" fill="#1A1918"></path>
                        <path d="M3.8737414,37.6965739 L3.8737414,23.6073598 L0.7923899,23.6073598 L0.7923899,37.6965739 L3.8737414,37.6965739 L3.8737414,37.6965739 Z M15.98864,37.6965739 L15.98864,23.6073598 L13.54481,23.6073598 L13.54481,32.2988961 L10.102197,23.6073598 L6.2983212,23.6073598 L6.2983212,37.6965739 L8.7421517,37.6965739 L8.7421517,27.6024914 L12.864788,37.6965739 L15.98864,37.6965739 L15.98864,37.6965739 Z M24.087157,37.6965739 C25.38345,33.1701748 26.488486,28.4950208 27.402266,23.6073598 L24.618425,23.6073598 C24.065906,27.2199788 23.343383,30.8113471 22.493355,34.4239661 C21.792082,31.4276174 21.005806,27.5812407 20.368285,23.6073598 L17.20193,23.6073598 C18.09446,28.2612631 19.220747,33.0001692 20.51704,37.6965739 L24.087157,37.6965739 L24.087157,37.6965739 Z M36.457065,37.6965739 L36.457065,35.210242 L31.696908,35.210242 L31.696908,31.6188737 L35.437031,31.6188737 L35.437031,29.2175446 L31.696908,29.2175446 L31.696908,26.0511903 L36.265808,26.0511903 L36.499566,23.6073598 L28.615556,23.6073598 L28.615556,37.6965739 L36.457065,37.6965739 L36.457065,37.6965739 Z M46.510646,26.9649704 C46.510646,24.6911455 45.001846,23.3523514 42.345508,23.3523514 C39.412912,23.3523514 37.627853,25.1586609 37.627853,27.5812407 C37.627853,32.8089129 43.726804,30.9388513 43.726804,34.0839549 C43.726804,34.9127322 43.195536,35.5290025 42.175503,35.5290025 C41.027965,35.5290025 40.602951,34.8914815 40.602951,33.6589409 L37.691605,34.0202028 C37.691605,36.697791 38.987898,37.9515823 41.877993,37.9515823 C44.916843,37.9515823 46.999412,36.0390193 46.999412,33.510186 C46.999412,28.4312687 40.751706,30.1525754 40.751706,27.0712239 C40.751706,26.4124522 41.17672,25.7749312 42.154252,25.7749312 C43.153035,25.7749312 43.5993,26.3061987 43.5993,27.3049816 L46.510646,26.9649704 L46.510646,26.9649704 Z M52.930357,37.6965739 L52.930357,26.2424466 L55.714199,26.2424466 L55.905455,23.6073598 L47.022662,23.6073598 L47.022662,26.2424466 L49.827755,26.2424466 L49.827755,37.6965739 L52.930357,37.6965739 L52.930357,37.6965739 Z M60.030091,37.6965739 L60.030091,23.6073598 L56.948739,23.6073598 L56.948739,37.6965739 L60.030091,37.6965739 L60.030091,37.6965739 Z M69.509903,35.0402364 C68.978635,35.2739941 68.319864,35.4014983 67.703594,35.4014983 C66.08854,35.4014983 65.323515,34.1264563 65.323515,30.5138373 C65.323515,27.6237421 65.961036,25.859934 67.703594,25.859934 C68.851131,25.859934 69.552404,26.6037085 69.361148,28.0912575 L72.251243,27.7937477 C72.399998,24.7123962 70.699942,23.3523514 67.873599,23.3523514 C64.154727,23.3523514 62.050907,25.9024354 62.050907,31.0451048 C62.050907,35.4652504 63.665961,37.9303316 67.384833,37.9303316 C69.084889,37.9303316 70.784945,37.4840669 72.314995,36.7615431 L72.314995,30.1738261 L67.427334,30.1738261 L67.427334,32.5964059 L69.509903,32.5964059 L69.509903,35.0402364 L69.509903,35.0402364 Z M84.429894,37.6965739 C83.367359,32.9789185 82.134819,28.2612631 80.64727,23.6073598 L77.077152,23.6073598 C75.632105,28.1762603 74.463316,32.872665 73.37953,37.6965739 L76.142121,37.6965739 C76.312127,36.697791 76.524634,35.7415095 76.737141,34.8064787 L80.711022,34.8064787 C80.94478,35.8052616 81.157287,36.7827938 81.306041,37.6965739 L84.429894,37.6965739 L84.429894,37.6965739 Z M77.31091,32.3838989 C77.757175,30.4713359 78.22469,28.622525 78.713456,26.709962 C79.244724,28.7287785 79.73349,30.5775894 80.137253,32.3838989 L77.31091,32.3838989 L77.31091,32.3838989 Z M88.214519,37.6965739 L88.214519,26.2424466 L90.998361,26.2424466 L91.189617,23.6073598 L82.306824,23.6073598 L82.306824,26.2424466 L85.111917,26.2424466 L85.111917,37.6965739 L88.214519,37.6965739 L88.214519,37.6965739 Z M95.314253,37.6965739 L95.314253,23.6073598 L92.232901,23.6073598 L92.232901,37.6965739 L95.314253,37.6965739 L95.314253,37.6965739 Z M103.41277,37.6965739 C104.709062,33.1701748 105.814099,28.4950208 106.727879,23.6073598 L103.944037,23.6073598 C103.391519,27.2199788 102.668995,30.8113471 101.818967,34.4239661 C101.117694,31.4276174 100.331418,27.5812407 99.693897,23.6073598 L96.527543,23.6073598 C97.420072,28.2612631 98.546359,33.0001692 99.842652,37.6965739 L103.41277,37.6965739 L103.41277,37.6965739 Z M115.782677,37.6965739 L115.782677,35.210242 L111.02252,35.210242 L111.02252,31.6188737 L114.762643,31.6188737 L114.762643,29.2175446 L111.02252,29.2175446 L111.02252,26.0511903 L115.591421,26.0511903 L115.825178,23.6073598 L107.941169,23.6073598 L107.941169,37.6965739 L115.782677,37.6965739 L115.782677,37.6965739 Z" id="INVESTIGATIVE" fill="#E05329"></path>
                        <path d="M7.9538758,55.56083 C7.7201181,57.6008972 6.8275887,58.5146773 5.5100453,58.5146773 C3.7887386,58.5146773 2.8749585,57.1333818 2.8749585,53.2020023 C2.8749585,49.6743861 3.7249865,47.7618231 5.5525467,47.7618231 C7.1250985,47.7618231 7.656366,48.760606 7.5713632,50.9494281 L9.6964332,50.7156704 C9.9301909,47.5280654 8.4851433,45.8705108 5.6800509,45.8705108 C2.343691,45.8705108 0.4098773,48.6118511 0.4098773,53.4782614 C0.4098773,58.323421 2.0886826,60.4272403 5.2975383,60.4272403 C7.9326251,60.4272403 9.8239374,58.6421815 10.057695,55.56083 L7.9538758,55.56083 L7.9538758,55.56083 Z M15.861136,60.4272403 C19.112493,60.4272403 21.003806,57.898407 21.003806,52.9894953 C21.003806,48.2718399 19.516257,45.8705108 16.073643,45.8705108 C12.779785,45.8705108 10.888472,48.3780934 10.888472,53.3082558 C10.888472,58.0259112 12.397272,60.4272403 15.861136,60.4272403 L15.861136,60.4272403 L15.861136,60.4272403 Z M16.009891,58.535928 C14.13983,58.535928 13.353554,56.8996241 13.353554,52.9894953 C13.353554,49.398127 14.182331,47.7618231 15.903638,47.7618231 C17.773699,47.7618231 18.559975,49.398127 18.559975,53.3082558 C18.559975,56.8996241 17.731198,58.535928 16.009891,58.535928 L16.009891,58.535928 L16.009891,58.535928 Z M29.63359,60.1934826 L29.782345,58.2384182 L25.532205,58.2384182 L25.532205,46.1042685 L23.215878,46.1042685 L23.215878,60.1934826 L29.63359,60.1934826 L29.63359,60.1934826 Z M37.54085,60.1934826 L37.689605,58.2384182 L33.439465,58.2384182 L33.439465,46.1042685 L31.123139,46.1042685 L31.123139,60.1934826 L37.54085,60.1934826 L37.54085,60.1934826 Z M48.401958,60.1934826 C47.318172,55.4333258 46.064381,50.7369211 44.555581,46.1042685 L41.984247,46.1042685 C40.475447,50.7369211 39.242906,55.4333258 38.13787,60.1934826 L40.284191,60.1934826 C40.496698,59.0459448 40.772957,57.8559056 41.049216,56.6871171 L45.278105,56.6871171 C45.575615,57.8771563 45.809372,59.0246941 46.04313,60.1934826 L48.401958,60.1934826 L48.401958,60.1934826 Z M41.49548,54.8383062 C42.026748,52.6919855 42.558015,50.6944197 43.174286,48.5693497 C43.769305,50.7156704 44.321823,52.7769883 44.83184,54.8383062 L41.49548,54.8383062 L41.49548,54.8383062 Z M53.652881,60.1934826 C57.137996,60.1934826 58.731798,58.2596689 58.731798,55.9645933 C58.731798,54.0520303 57.520508,53.0744981 56.075461,52.6919855 C57.350503,52.2032194 58.200531,51.1831858 58.200531,49.5681326 C58.200531,47.3580598 56.776734,46.1042685 53.992892,46.1042685 L49.849006,46.1042685 L49.849006,60.1934826 L53.652881,60.1934826 L53.652881,60.1934826 Z M52.12283,51.9694617 L52.12283,47.910578 L53.504126,47.910578 C55.14043,47.910578 55.841703,48.5055976 55.841703,49.9081438 C55.841703,51.098183 55.097928,51.9694617 53.397872,51.9694617 L52.12283,51.9694617 L52.12283,51.9694617 Z M52.12283,58.3446717 L52.12283,53.7757712 L53.589129,53.7757712 C55.799202,53.7757712 56.330469,54.9020583 56.330469,56.0920975 C56.330469,57.4946437 55.480441,58.3446717 53.674132,58.3446717 L52.12283,58.3446717 L52.12283,58.3446717 Z M65.236512,60.4272403 C68.487869,60.4272403 70.379182,57.898407 70.379182,52.9894953 C70.379182,48.2718399 68.891633,45.8705108 65.449019,45.8705108 C62.155161,45.8705108 60.263848,48.3780934 60.263848,53.3082558 C60.263848,58.0259112 61.772648,60.4272403 65.236512,60.4272403 L65.236512,60.4272403 L65.236512,60.4272403 Z M65.385267,58.535928 C63.515206,58.535928 62.72893,56.8996241 62.72893,52.9894953 C62.72893,49.398127 63.557707,47.7618231 65.279014,47.7618231 C67.149075,47.7618231 67.935351,49.398127 67.935351,53.3082558 C67.935351,56.8996241 67.106574,58.535928 65.385267,58.535928 L65.385267,58.535928 L65.385267,58.535928 Z M81.537799,60.1934826 L78.201439,53.9670275 C79.986498,53.4995121 81.006532,52.0119631 81.006532,50.0568987 C81.006532,47.5705668 79.43398,46.1042685 76.39513,46.1042685 L72.591254,46.1042685 L72.591254,60.1934826 L74.907581,60.1934826 L74.907581,54.3707908 L75.927614,54.3707908 L78.83896,60.1934826 L81.537799,60.1934826 L81.537799,60.1934826 Z M74.907581,52.5432306 L74.907581,47.9530794 L76.203874,47.9530794 C77.818927,47.9530794 78.562701,48.760606 78.562701,50.2056536 C78.562701,51.7144533 77.691422,52.5432306 76.203874,52.5432306 L74.907581,52.5432306 L74.907581,52.5432306 Z M91.929266,60.1934826 C90.845481,55.4333258 89.591689,50.7369211 88.08289,46.1042685 L85.511555,46.1042685 C84.002755,50.7369211 82.770215,55.4333258 81.665178,60.1934826 L83.811499,60.1934826 C84.024006,59.0459448 84.300265,57.8559056 84.576524,56.6871171 L88.805414,56.6871171 C89.102923,57.8771563 89.336681,59.0246941 89.570439,60.1934826 L91.929266,60.1934826 L91.929266,60.1934826 Z M85.022789,54.8383062 C85.554056,52.6919855 86.085324,50.6944197 86.701594,48.5693497 C87.296614,50.7156704 87.849132,52.7769883 88.359149,54.8383062 L85.022789,54.8383062 L85.022789,54.8383062 Z M95.120997,60.1934826 L95.120997,48.0593329 L98.032342,48.0593329 L98.181097,46.1042685 L89.850823,46.1042685 L89.850823,48.0593329 L92.78342,48.0593329 L92.78342,60.1934826 L95.120997,60.1934826 L95.120997,60.1934826 Z M101.731964,60.1934826 L101.731964,46.1042685 L99.415638,46.1042685 L99.415638,60.1934826 L101.731964,60.1934826 L101.731964,60.1934826 Z M108.916701,60.4272403 C112.168058,60.4272403 114.05937,57.898407 114.05937,52.9894953 C114.05937,48.2718399 112.571821,45.8705108 109.129208,45.8705108 C105.835349,45.8705108 103.944037,48.3780934 103.944037,53.3082558 C103.944037,58.0259112 105.452837,60.4272403 108.916701,60.4272403 L108.916701,60.4272403 L108.916701,60.4272403 Z M109.065456,58.535928 C107.195394,58.535928 106.409118,56.8996241 106.409118,52.9894953 C106.409118,49.398127 107.237896,47.7618231 108.959202,47.7618231 C110.829264,47.7618231 111.61554,49.398127 111.61554,53.3082558 C111.61554,56.8996241 110.786762,58.535928 109.065456,58.535928 L109.065456,58.535928 L109.065456,58.535928 Z M125.6005,60.1934826 L125.6005,46.1042685 L123.666687,46.1042685 L123.666687,56.2196017 L119.267792,46.1042685 L116.271443,46.1042685 L116.271443,60.1934826 L118.205257,60.1934826 L118.205257,49.1006172 L123.071667,60.1934826 L125.6005,60.1934826 L125.6005,60.1934826 Z M136.270352,49.2493721 C136.291602,47.3155584 135.080312,45.8705108 132.317721,45.8705108 C129.597632,45.8705108 127.791322,47.4643133 127.791322,49.7806396 C127.791322,54.8808076 134.336538,53.1382502 134.336538,56.6021143 C134.336538,57.7921535 133.48651,58.5784294 132.147716,58.5784294 C130.341406,58.5784294 129.873891,57.6433986 129.937643,56.4533594 L127.770072,56.7296185 C127.642568,59.0884462 128.960111,60.4272403 131.913958,60.4272403 C134.804053,60.4272403 136.780368,58.6634322 136.780368,56.2621031 C136.780368,51.2044365 130.15015,52.8832418 130.15015,49.4618791 C130.15015,48.5693497 130.76642,47.7193217 132.147716,47.7193217 C133.614014,47.7193217 134.08153,48.4630962 134.08153,49.5256312 L136.270352,49.2493721 L136.270352,49.2493721 Z" id="COLLABORATIONS" fill="#1A1918"></path>
                    </g>
                </g>
            </g>
        </g>
    </g>
</svg>