<?xml version="1.0" encoding="UTF-8"?>
<svg width="227px" height="72px" viewBox="0 0 227 72" version="1.1" xmlns="http://www.w3.org/2000/svg" xmlns:xlink="http://www.w3.org/1999/xlink">
    <!-- Generator: Sketch 41.1 (35376) - http://www.bohemiancoding.com/sketch -->
    <title>eic.logo</title>
    <desc>Created with Sketch.</desc>
    <defs/>
    <g id="Page-1" stroke="none" stroke-width="1" fill="none" fill-rule="evenodd">
        <g id="eic.logo">
            <path d="M98.3131377,14.9470826 L98.3131377,13.077021 L93.2554711,13.077021 L93.2554711,8.57187263 L97.1868506,8.57187263 L97.1868506,6.72306173 L93.2554711,6.72306173 L93.2554711,2.72793013 L98.07938,2.72793013 L98.2706363,0.857868528 L90.9391448,0.857868528 L90.9391448,14.9470826 L98.3131377,14.9470826 Z M109.174245,0.857868528 L107.134178,0.857868528 L107.134178,9.76191183 C107.134178,12.2057423 106.58166,13.3107787 104.817852,13.3107787 C103.181548,13.3107787 102.480275,12.5245028 102.480275,9.76191183 L102.480275,0.857868528 L100.163949,0.857868528 L100.163949,9.97441883 C100.163949,14.0333025 101.757751,15.1808403 104.584094,15.1808403 C107.856702,15.1808403 109.174245,13.5445364 109.174245,9.65565833 L109.174245,0.857868528 Z M120.800378,14.9470826 L117.464018,8.72062753 C119.249077,8.25311213 120.269111,6.76556313 120.269111,4.81049873 C120.269111,2.32416683 118.696559,0.857868528 115.657709,0.857868528 L111.853834,0.857868528 L111.853834,14.9470826 L114.17016,14.9470826 L114.17016,9.12439083 L115.190194,9.12439083 L118.101539,14.9470826 L120.800378,14.9470826 Z M114.17016,7.29683063 L114.17016,2.70667943 L115.466453,2.70667943 C117.081506,2.70667943 117.82528,3.51420603 117.82528,4.95925363 C117.82528,6.46805333 116.954002,7.29683063 115.466453,7.29683063 L114.17016,7.29683063 Z M126.433814,15.1808403 C129.685171,15.1808403 131.576483,12.652007 131.576483,7.74309533 C131.576483,3.02543993 130.088934,0.624110828 126.646321,0.624110828 C123.352462,0.624110828 121.46115,3.13169343 121.46115,8.06185583 C121.46115,12.7795112 122.96995,15.1808403 126.433814,15.1808403 Z M126.582569,13.289528 C124.712507,13.289528 123.926231,11.6532241 123.926231,7.74309533 C123.926231,4.15172703 124.755009,2.51542313 126.476315,2.51542313 C128.346377,2.51542313 129.132653,4.15172703 129.132653,8.06185583 C129.132653,11.6532241 128.303875,13.289528 126.582569,13.289528 Z M136.104882,14.9470826 L136.104882,9.86816533 L136.912409,9.86816533 C140.376273,9.86816533 142.055078,7.84934883 142.055078,5.19301133 C142.055078,2.38791893 140.461276,0.857868528 137.358674,0.857868528 L133.788556,0.857868528 L133.788556,14.9470826 L136.104882,14.9470826 Z M136.104882,8.01935443 L136.104882,2.72793013 L137.146167,2.72793013 C138.867473,2.72793013 139.589997,3.70546233 139.589997,5.32051553 C139.589997,7.06307293 138.867473,8.01935443 136.976161,8.01935443 L136.104882,8.01935443 Z M151.109877,14.9470826 L151.109877,13.077021 L146.05221,13.077021 L146.05221,8.57187263 L149.983589,8.57187263 L149.983589,6.72306173 L146.05221,6.72306173 L146.05221,2.72793013 L150.876119,2.72793013 L151.067375,0.857868528 L143.735884,0.857868528 L143.735884,14.9470826 L151.109877,14.9470826 Z M161.992235,14.9470826 C160.908449,10.1869258 159.654658,5.49052113 158.145858,0.857868528 L155.574523,0.857868528 C154.065724,5.49052113 152.833183,10.1869258 151.728147,14.9470826 L153.874468,14.9470826 C154.086974,13.7995448 154.363234,12.6095056 154.639493,11.4407171 L158.868382,11.4407171 C159.165892,12.6307563 159.39965,13.7782941 159.633407,14.9470826 L161.992235,14.9470826 Z M155.085757,9.59190623 C155.617025,7.44558553 156.148292,5.44801973 156.764563,3.32294973 C157.359582,5.46927043 157.912101,7.53058833 158.422117,9.59190623 L155.085757,9.59190623 Z M172.76834,14.9470826 L172.76834,0.857868528 L170.834526,0.857868528 L170.834526,10.9732017 L166.435631,0.857868528 L163.439283,0.857868528 L163.439283,14.9470826 L165.373096,14.9470826 L165.373096,3.85421723 L170.239507,14.9470826 L172.76834,14.9470826 Z" id="EUROPEAN" fill="#1A1918"/>
            <path d="M93.8717414,37.4475826 L93.8717414,23.3583685 L90.7903899,23.3583685 L90.7903899,37.4475826 L93.8717414,37.4475826 Z M105.98664,37.4475826 L105.98664,23.3583685 L103.54281,23.3583685 L103.54281,32.0499048 L100.100197,23.3583685 L96.2963212,23.3583685 L96.2963212,37.4475826 L98.7401517,37.4475826 L98.7401517,27.3535001 L102.862788,37.4475826 L105.98664,37.4475826 Z M114.085157,37.4475826 C115.38145,32.9211835 116.486486,28.2460295 117.400266,23.3583685 L114.616425,23.3583685 C114.063906,26.9709875 113.341383,30.5623558 112.491355,34.1749748 C111.790082,31.1786261 111.003806,27.3322494 110.366285,23.3583685 L107.19993,23.3583685 C108.09246,28.0122718 109.218747,32.7511779 110.51504,37.4475826 L114.085157,37.4475826 Z M126.455065,37.4475826 L126.455065,34.9612507 L121.694908,34.9612507 L121.694908,31.3698824 L125.435031,31.3698824 L125.435031,28.9685533 L121.694908,28.9685533 L121.694908,25.802199 L126.263808,25.802199 L126.497566,23.3583685 L118.613556,23.3583685 L118.613556,37.4475826 L126.455065,37.4475826 Z M136.508646,26.7159791 C136.508646,24.4421542 134.999846,23.1033601 132.343508,23.1033601 C129.410912,23.1033601 127.625853,24.9096696 127.625853,27.3322494 C127.625853,32.5599216 133.724804,30.68986 133.724804,33.8349636 C133.724804,34.6637409 133.193536,35.2800112 132.173503,35.2800112 C131.025965,35.2800112 130.600951,34.6424902 130.600951,33.4099496 L127.689605,33.7712115 C127.689605,36.4487997 128.985898,37.702591 131.875993,37.702591 C134.914843,37.702591 136.997412,35.790028 136.997412,33.2611947 C136.997412,28.1822774 130.749706,29.9035841 130.749706,26.8222326 C130.749706,26.1634609 131.17472,25.5259399 132.152252,25.5259399 C133.151035,25.5259399 133.5973,26.0572074 133.5973,27.0559903 L136.508646,26.7159791 Z M142.928357,37.4475826 L142.928357,25.9934553 L145.712199,25.9934553 L145.903455,23.3583685 L137.020662,23.3583685 L137.020662,25.9934553 L139.825755,25.9934553 L139.825755,37.4475826 L142.928357,37.4475826 Z M150.028091,37.4475826 L150.028091,23.3583685 L146.946739,23.3583685 L146.946739,37.4475826 L150.028091,37.4475826 Z M159.507903,34.7912451 C158.976636,35.0250028 158.317864,35.152507 157.701594,35.152507 C156.08654,35.152507 155.321515,33.877465 155.321515,30.264846 C155.321515,27.3747508 155.959036,25.6109427 157.701594,25.6109427 C158.849131,25.6109427 159.550404,26.3547172 159.359148,27.8422662 L162.249243,27.5447564 C162.397998,24.4634049 160.697942,23.1033601 157.871599,23.1033601 C154.152727,23.1033601 152.048907,25.6534441 152.048907,30.7961135 C152.048907,35.2162591 153.663961,37.6813403 157.382833,37.6813403 C159.082889,37.6813403 160.782945,37.2350756 162.312995,36.5125518 L162.312995,29.9248348 L157.425334,29.9248348 L157.425334,32.3474146 L159.507903,32.3474146 L159.507903,34.7912451 Z M174.427894,37.4475826 C173.365359,32.7299272 172.132819,28.0122718 170.64527,23.3583685 L167.075152,23.3583685 C165.630105,27.927269 164.461316,32.6236737 163.37753,37.4475826 L166.140121,37.4475826 C166.310127,36.4487997 166.522634,35.4925182 166.735141,34.5574874 L170.709022,34.5574874 C170.94278,35.5562703 171.155287,36.5338025 171.304042,37.4475826 L174.427894,37.4475826 Z M167.30891,32.1349076 C167.755175,30.2223446 168.22269,28.3735337 168.711456,26.4609707 C169.242724,28.4797872 169.73149,30.3285981 170.135253,32.1349076 L167.30891,32.1349076 Z M178.212519,37.4475826 L178.212519,25.9934553 L180.996361,25.9934553 L181.187617,23.3583685 L172.304824,23.3583685 L172.304824,25.9934553 L175.109917,25.9934553 L175.109917,37.4475826 L178.212519,37.4475826 Z M185.312253,37.4475826 L185.312253,23.3583685 L182.230901,23.3583685 L182.230901,37.4475826 L185.312253,37.4475826 Z M193.41077,37.4475826 C194.707062,32.9211835 195.812099,28.2460295 196.725879,23.3583685 L193.942037,23.3583685 C193.389519,26.9709875 192.666995,30.5623558 191.816967,34.1749748 C191.115694,31.1786261 190.329418,27.3322494 189.691897,23.3583685 L186.525543,23.3583685 C187.418072,28.0122718 188.544359,32.7511779 189.840652,37.4475826 L193.41077,37.4475826 Z M205.780677,37.4475826 L205.780677,34.9612507 L201.02052,34.9612507 L201.02052,31.3698824 L204.760643,31.3698824 L204.760643,28.9685533 L201.02052,28.9685533 L201.02052,25.802199 L205.589421,25.802199 L205.823178,23.3583685 L197.939169,23.3583685 L197.939169,37.4475826 L205.780677,37.4475826 Z" id="INVESTIGATIVE" fill="#E05329"/>
            <path d="M97.9518758,55.31593 C97.7181181,57.3559972 96.8255887,58.2697773 95.5080453,58.2697773 C93.7867386,58.2697773 92.8729585,56.8884818 92.8729585,52.9571023 C92.8729585,49.4294861 93.7229865,47.5169231 95.5505467,47.5169231 C97.1230985,47.5169231 97.654366,48.515706 97.5693632,50.7045281 L99.6944332,50.4707704 C99.9281909,47.2831654 98.4831433,45.6256108 95.6780509,45.6256108 C92.341691,45.6256108 90.4078773,48.3669511 90.4078773,53.2333614 C90.4078773,58.078521 92.0866826,60.1823403 95.2955383,60.1823403 C97.9306251,60.1823403 99.8219374,58.3972815 100.055695,55.31593 L97.9518758,55.31593 Z M105.859136,60.1823403 C109.110493,60.1823403 111.001806,57.653507 111.001806,52.7445953 C111.001806,48.0269399 109.514257,45.6256108 106.071643,45.6256108 C102.777785,45.6256108 100.886472,48.1331934 100.886472,53.0633558 C100.886472,57.7810112 102.395272,60.1823403 105.859136,60.1823403 Z M106.007891,58.291028 C104.13783,58.291028 103.351554,56.6547241 103.351554,52.7445953 C103.351554,49.153227 104.180331,47.5169231 105.901638,47.5169231 C107.771699,47.5169231 108.557975,49.153227 108.557975,53.0633558 C108.557975,56.6547241 107.729198,58.291028 106.007891,58.291028 Z M119.63159,59.9485826 L119.780345,57.9935182 L115.530205,57.9935182 L115.530205,45.8593685 L113.213878,45.8593685 L113.213878,59.9485826 L119.63159,59.9485826 Z M127.53885,59.9485826 L127.687605,57.9935182 L123.437465,57.9935182 L123.437465,45.8593685 L121.121139,45.8593685 L121.121139,59.9485826 L127.53885,59.9485826 Z M138.399958,59.9485826 C137.316172,55.1884258 136.062381,50.4920211 134.553581,45.8593685 L131.982247,45.8593685 C130.473447,50.4920211 129.240906,55.1884258 128.13587,59.9485826 L130.282191,59.9485826 C130.494698,58.8010448 130.770957,57.6110056 131.047216,56.4422171 L135.276105,56.4422171 C135.573615,57.6322563 135.807373,58.7797941 136.04113,59.9485826 L138.399958,59.9485826 Z M131.49348,54.5934062 C132.024748,52.4470855 132.556015,50.4495197 133.172286,48.3244497 C133.767305,50.4707704 134.319824,52.5320883 134.82984,54.5934062 L131.49348,54.5934062 Z M143.650881,59.9485826 C147.135996,59.9485826 148.729798,58.0147689 148.729798,55.7196933 C148.729798,53.8071303 147.518508,52.8295981 146.073461,52.4470855 C147.348503,51.9583194 148.198531,50.9382858 148.198531,49.3232326 C148.198531,47.1131598 146.774734,45.8593685 143.990892,45.8593685 L139.847006,45.8593685 L139.847006,59.9485826 L143.650881,59.9485826 Z M142.12083,51.7245617 L142.12083,47.665678 L143.502126,47.665678 C145.13843,47.665678 145.839703,48.2606976 145.839703,49.6632438 C145.839703,50.853283 145.095928,51.7245617 143.395872,51.7245617 L142.12083,51.7245617 Z M142.12083,58.0997717 L142.12083,53.5308712 L143.587129,53.5308712 C145.797202,53.5308712 146.328469,54.6571583 146.328469,55.8471975 C146.328469,57.2497437 145.478441,58.0997717 143.672132,58.0997717 L142.12083,58.0997717 Z M155.234512,60.1823403 C158.485869,60.1823403 160.377182,57.653507 160.377182,52.7445953 C160.377182,48.0269399 158.889633,45.6256108 155.447019,45.6256108 C152.153161,45.6256108 150.261849,48.1331934 150.261849,53.0633558 C150.261849,57.7810112 151.770648,60.1823403 155.234512,60.1823403 Z M155.383267,58.291028 C153.513206,58.291028 152.72693,56.6547241 152.72693,52.7445953 C152.72693,49.153227 153.555707,47.5169231 155.277014,47.5169231 C157.147075,47.5169231 157.933351,49.153227 157.933351,53.0633558 C157.933351,56.6547241 157.104574,58.291028 155.383267,58.291028 Z M171.535799,59.9485826 L168.199439,53.7221275 C169.984498,53.2546121 171.004532,51.7670631 171.004532,49.8119987 C171.004532,47.3256668 169.43198,45.8593685 166.39313,45.8593685 L162.589255,45.8593685 L162.589255,59.9485826 L164.905581,59.9485826 L164.905581,54.1258908 L165.925614,54.1258908 L168.83696,59.9485826 L171.535799,59.9485826 Z M164.905581,52.2983306 L164.905581,47.7081794 L166.201874,47.7081794 C167.816927,47.7081794 168.560701,48.515706 168.560701,49.9607536 C168.560701,51.4695533 167.689422,52.2983306 166.201874,52.2983306 L164.905581,52.2983306 Z M181.927266,59.9485826 C180.843481,55.1884258 179.589689,50.4920211 178.08089,45.8593685 L175.509555,45.8593685 C174.000755,50.4920211 172.768215,55.1884258 171.663178,59.9485826 L173.809499,59.9485826 C174.022006,58.8010448 174.298265,57.6110056 174.574524,56.4422171 L178.803414,56.4422171 C179.100923,57.6322563 179.334681,58.7797941 179.568439,59.9485826 L181.927266,59.9485826 Z M175.020789,54.5934062 C175.552056,52.4470855 176.083324,50.4495197 176.699594,48.3244497 C177.294614,50.4707704 177.847132,52.5320883 178.357149,54.5934062 L175.020789,54.5934062 Z M185.118997,59.9485826 L185.118997,47.8144329 L188.030342,47.8144329 L188.179097,45.8593685 L179.848823,45.8593685 L179.848823,47.8144329 L182.78142,47.8144329 L182.78142,59.9485826 L185.118997,59.9485826 Z M191.729964,59.9485826 L191.729964,45.8593685 L189.413638,45.8593685 L189.413638,59.9485826 L191.729964,59.9485826 Z M198.914701,60.1823403 C202.166058,60.1823403 204.05737,57.653507 204.05737,52.7445953 C204.05737,48.0269399 202.569821,45.6256108 199.127208,45.6256108 C195.833349,45.6256108 193.942037,48.1331934 193.942037,53.0633558 C193.942037,57.7810112 195.450837,60.1823403 198.914701,60.1823403 Z M199.063456,58.291028 C197.193394,58.291028 196.407118,56.6547241 196.407118,52.7445953 C196.407118,49.153227 197.235896,47.5169231 198.957202,47.5169231 C200.827264,47.5169231 201.61354,49.153227 201.61354,53.0633558 C201.61354,56.6547241 200.784762,58.291028 199.063456,58.291028 Z M215.5985,59.9485826 L215.5985,45.8593685 L213.664687,45.8593685 L213.664687,55.9747017 L209.265792,45.8593685 L206.269443,45.8593685 L206.269443,59.9485826 L208.203257,59.9485826 L208.203257,48.8557172 L213.069667,59.9485826 L215.5985,59.9485826 Z M226.268352,49.0044721 C226.289602,47.0706584 225.078312,45.6256108 222.315721,45.6256108 C219.595632,45.6256108 217.789322,47.2194133 217.789322,49.5357396 C217.789322,54.6359076 224.334538,52.8933502 224.334538,56.3572143 C224.334538,57.5472535 223.48451,58.3335294 222.145716,58.3335294 C220.339406,58.3335294 219.871891,57.3984986 219.935643,56.2084594 L217.768072,56.4847185 C217.640568,58.8435462 218.958111,60.1823403 221.911958,60.1823403 C224.802053,60.1823403 226.778368,58.4185322 226.778368,56.0172031 C226.778368,50.9595365 220.14815,52.6383418 220.14815,49.2169791 C220.14815,48.3244497 220.76442,47.4744217 222.145716,47.4744217 C223.612014,47.4744217 224.07953,48.2181962 224.07953,49.2807312 L226.268352,49.0044721 Z" id="COLLABORATIONS" fill="#1A1918"/>
            <path d="M61.5223,25.3819 C65.8933,35.6989 63.9033,48.0639 55.4893,56.4749 C44.4173,67.5469 26.4653,67.5469 15.3953,56.4749 C4.3213,45.4029 4.3213,27.4469 15.3933,16.3759 C23.8033,7.9659 36.1703,5.9759 46.4873,10.3459 L51.8203,5.0139 C38.4603,-1.9561 21.5993,0.1459 10.3773,11.3649 C-3.4597,25.2039 -3.4597,47.6459 10.3833,61.4869 C24.2213,75.3259 46.6633,75.3259 60.5013,61.4869 C71.7203,50.2699 73.8273,33.4079 66.8573,20.0489 L61.5223,25.3819 Z" id="Fill-4" fill="#1A1918"/>
            <path d="M62.2527,13.9927 C62.2527,11.5757 60.2937,9.6167 57.8777,9.6167 C55.4597,9.6167 53.5027,11.5757 53.5027,13.9927 C53.5027,16.4117 55.4597,18.3687 57.8777,18.3687 C60.2937,18.3687 62.2527,16.4117 62.2527,13.9927" id="Fill-5" fill="#E05329"/>
            <path d="M55.9705,30.9351 L49.5775,37.3281 C49.3645,40.6501 48.0045,43.9121 45.4675,46.4521 C39.9305,51.9861 30.9545,51.9861 25.4205,46.4501 C19.8835,40.9111 19.8805,31.9361 25.4175,26.4001 C27.9565,23.8611 31.2155,22.5031 34.5415,22.2901 C37.3295,22.1151 40.1525,22.7621 42.6325,24.2241 L32.9385,33.9171 C31.5535,35.3021 31.5535,37.5471 32.9385,38.9311 C34.3225,40.3151 36.5655,40.3141 37.9505,38.9311 L52.7575,24.1191 C52.0805,23.1641 51.3345,22.2441 50.4795,21.3871 C49.6255,20.5321 48.7045,19.7871 47.7505,19.1061 C45.6455,17.6091 43.3405,16.5371 40.9335,15.8971 C33.8435,14.0071 25.9675,15.8241 20.4055,21.3871 C12.0995,29.6921 12.1025,43.1551 20.4075,51.4631 C28.7135,59.7661 42.1765,59.7681 50.4775,51.4631 C56.0435,45.9001 57.8605,38.0281 55.9705,30.9351" id="Fill-6" fill="#1A1918"/>
        </g>
    </g>
</svg>