<?xml version="1.0" encoding="UTF-8" standalone="no"?>
<svg
   width="70.869087"
   height="70.865982"
   viewBox="0 0 70.869087 70.865982"
   version="1.1"
   id="svg84"
   sodipodi:docname="eic.logo.image.svg"
   inkscape:version="1.2.1 (9c6d41e, 2022-07-14)"
   xmlns:inkscape="http://www.inkscape.org/namespaces/inkscape"
   xmlns:sodipodi="http://sodipodi.sourceforge.net/DTD/sodipodi-0.dtd"
   xmlns="http://www.w3.org/2000/svg"
   xmlns:svg="http://www.w3.org/2000/svg"
   xmlns:rdf="http://www.w3.org/1999/02/22-rdf-syntax-ns#"
   xmlns:cc="http://creativecommons.org/ns#"
   xmlns:dc="http://purl.org/dc/elements/1.1/">
  <sodipodi:namedview
     id="namedview86"
     pagecolor="#ffffff"
     bordercolor="#000000"
     borderopacity="0.25"
     inkscape:showpageshadow="2"
     inkscape:pageopacity="0.0"
     inkscape:pagecheckerboard="0"
     inkscape:deskcolor="#d1d1d1"
     showgrid="false"
     inkscape:zoom="3.2777778"
     inkscape:cx="113.49153"
     inkscape:cy="35.084746"
     inkscape:window-width="1309"
     inkscape:window-height="456"
     inkscape:window-x="0"
     inkscape:window-y="38"
     inkscape:window-maximized="0"
     inkscape:current-layer="svg84" />
  <!-- Generator: Sketch 41.1 (35376) - http://www.bohemiancoding.com/sketch -->
  <title
     id="title70">eic.logo</title>
  <desc
     id="desc72">Created with Sketch.</desc>
  <defs
     id="defs74" />
  <path
     d="m 61.522,24.381731 c 4.371,10.317 2.381,22.682 -6.033,31.093 -11.072,11.072 -29.024,11.072 -40.094,0 -11.0739999,-11.072 -11.0739999,-29.028 -0.002,-40.099 C 23.803,6.9657307 36.17,4.9757307 46.487,9.3457307 l 5.333,-5.332 c -13.36,-6.97 -30.221,-4.86799996 -41.443,6.3510003 -13.8369999,13.839 -13.8369999,36.281 0.006,50.122 13.838,13.839 36.28,13.839 50.118,0 11.219,-11.217 13.326,-28.079 6.356,-41.438 z"
     id="Fill-4"
     fill="#1a1918"
     style="fill-rule:evenodd;stroke:none;stroke-width:1" />
  <path
     d="m 62.2524,12.992531 c 0,-2.417 -1.959,-4.3760003 -4.375,-4.3760003 -2.418,0 -4.375,1.9590003 -4.375,4.3760003 0,2.419 1.957,4.376 4.375,4.376 2.416,0 4.375,-1.957 4.375,-4.376"
     id="Fill-5"
     fill="#e05329"
     style="fill-rule:evenodd;stroke:none;stroke-width:1" />
  <path
     d="m 55.9702,29.934931 -6.393,6.393 c -0.213,3.322 -1.573,6.584 -4.11,9.124 -5.537,5.534 -14.513,5.534 -20.047,-0.002 -5.537,-5.539 -5.54,-14.514 -0.003,-20.05 2.539,-2.539 5.798,-3.897 9.124,-4.11 2.788,-0.175 5.611,0.472 8.091,1.934 l -9.694,9.693 c -1.385,1.385 -1.385,3.63 0,5.014 1.384,1.384 3.627,1.383 5.012,0 l 14.807,-14.812 c -0.677,-0.955 -1.423,-1.875 -2.278,-2.732 -0.854,-0.855 -1.775,-1.6 -2.729,-2.281 -2.105,-1.497 -4.41,-2.569 -6.817,-3.209 -7.09,-1.89 -14.966,-0.073 -20.528,5.49 -8.306,8.305 -8.303,21.768 0.002,30.076 8.306,8.303 21.769,8.305 30.07,0 5.566,-5.563 7.383,-13.435 5.493,-20.528"
     id="Fill-6"
     fill="#1a1918"
     style="fill-rule:evenodd;stroke:none;stroke-width:1" />
  <metadata
     id="metadata305">
    <rdf:RDF>
      <cc:Work
         rdf:about="">
        <dc:title>eic.logo</dc:title>
      </cc:Work>
    </rdf:RDF>
  </metadata>
</svg>
