<?xml version="1.0" encoding="utf-8"?>
<svg viewBox="0 0 800 400" xmlns="http://www.w3.org/2000/svg">
    <path d="m613.631 221.81612q0 3.60171 2.10085 5.15094a8.56886 8.56886 0 0 0 5.19258 1.53736 12.16593 12.16593 0 0 0 5.7-1.41453 27.88051 27.88051 0 0 0 5.70809-4.16038v-11.56983a73.51132 73.51132 0 0 0 -8.83964 1.62453 23.28739 23.28739 0 0 0 -5.787 2.23077 8.25294 8.25294 0 0 0 -3.13154 2.95979 7.22479 7.22479 0 0 0 -.94332 3.64529zm-6.94877.51509a11.55366 11.55366 0 0 1 6.132-10.5q6.13619-3.64925 19.51434-5.10342a19.17713 19.17713 0 0 0 -.38474-3.85924 9.14744 9.14744 0 0 0 -1.37535-3.34415 7.41324 7.41324 0 0 0 -2.616-2.35757 8.70347 8.70347 0 0 0 -4.20171-.89942 16.781 16.781 0 0 0 -6.818 1.37094 32.96589 32.96589 0 0 0 -5.62072 3.09058l-2.83025-4.88945a46.776 46.776 0 0 1 7.135-3.64529 23.87764 23.87764 0 0 1 9.27556-1.7553q7.67 0 11.05918 4.67547 3.44858 4.66556 3.44847 12.46926v25.55664h-5.82678l-.59473-4.97661h-.1585a34.35092 34.35092 0 0 1 -6.461 4.23965 15.906 15.906 0 0 1 -7.33321 1.75924 12.654 12.654 0 0 1 -8.76008-3.09059c-2.29905-2.05245-3.48821-4.96868-3.48821-8.74076zm-19.04642-30.86607h7.03973v41.67119h-7.0358v-41.6712zm3.60724-8.57436a4.98016 4.98016 0 0 1 -3.47257-1.28378 4.21394 4.21394 0 0 1 -1.41483-3.26093 4.13661 4.13661 0 0 1 1.3871-3.30058 5.05218 5.05218 0 0 1 3.44877-1.24018 4.97356 4.97356 0 0 1 3.44847 1.22831 4.08982 4.08982 0 0 1 1.3874 3.28868 4.20773 4.20773 0 0 1 -1.42713 3.249 5.10325 5.10325 0 0 1 -3.488 1.26795zm-46.91653 29.408q0 7.54812 3.00076 11.74812a9.89227 9.89227 0 0 0 8.49075 4.2 11.15871 11.15871 0 0 0 5.48994-1.42643 19.80819 19.80819 0 0 0 5.145-4.31886v-21.79251a17.65483 17.65483 0 0 0 -5.10157-3.40754 12.90684 12.90684 0 0 0 -4.99438-.99058 9.61957 9.61957 0 0 0 -4.6774 1.14906 11.82111 11.82111 0 0 0 -3.80518 3.24907 16.48145 16.48145 0 0 0 -2.57655 4.99246 20.915 20.915 0 0 0 -.95143 6.49812zm-7.29343.08716a26.09725 26.09725 0 0 1 1.50638-9.12906 21.48716 21.48716 0 0 1 3.98356-6.90228 18.125 18.125 0 0 1 5.74757-4.37435 15.95009 15.95009 0 0 1 6.89725-1.54526 14.30387 14.30387 0 0 1 6.26274 1.28772 30.71731 30.71731 0 0 1 5.43064 3.52643l-.317-7.09248v-16.04723h7.135v61.05857h-5.82708l-.59447-4.8736h-.238a25.14923 25.14923 0 0 1 -5.70779 4.16038 13.98243 13.98243 0 0 1 -6.89725 1.783c-5.27183 0-9.47354-1.86228-12.56526-5.66605-3.11586-3.76415-4.6774-9.15287-4.6774-16.12643zm-13.46129-3.16982q0-6.43074-2.70733-9.8185a9.1562 9.1562 0 0 0 -7.59077-3.38772 10.2911 10.2911 0 0 0 -4.24117.89942 11.68083 11.68083 0 0 0 -3.647 2.57549 13.55736 13.55736 0 0 0 -2.70312 4.11283 18.94533 18.94533 0 0 0 -1.41512 5.61454h22.30061zm-29.162 3.16982a25.23392 25.23392 0 0 1 1.58536-9.21625 21.58378 21.58378 0 0 1 4.20169-6.90225 18.30015 18.30015 0 0 1 5.96177-4.33076 16.832 16.832 0 0 1 6.94875-1.49775 17.44 17.44 0 0 1 7.07141 1.37094 13.72632 13.72632 0 0 1 5.23235 3.94246 18.094 18.094 0 0 1 3.21857 6.17321 27.26883 27.26883 0 0 1 1.10994 8.05927 23.79945 23.79945 0 0 1 -.2537 3.85924h-28.1355q.428 6.77548 4.16191 10.71795a12.82015 12.82015 0 0 0 9.73531 3.92266 16.55639 16.55639 0 0 0 5.53365-.91134 23.26065 23.26065 0 0 0 4.84373-2.37734l2.48948 4.63584a33.341 33.341 0 0 1 -6.09253 2.9717 21.9643 21.9643 0 0 1 -7.65016 1.26792 20.51262 20.51262 0 0 1 -7.84868-1.50567 19.06327 19.06327 0 0 1 -6.342-4.27924 19.49894 19.49894 0 0 1 -4.24144-6.81511 25.54011 25.54011 0 0 1 -1.54588-9.19246zm-68.02-20.92078h5.82687l.60645 6.00283h.25767a29.47188 29.47188 0 0 1 5.98544-4.99246 12.91718 12.91718 0 0 1 7.01613-2.02076 12.15022 12.15022 0 0 1 7.53115 2.1 12.34641 12.34641 0 0 1 4.00372 5.86416 36.05346 36.05346 0 0 1 6.58-5.78491 12.72143 12.72143 0 0 1 7.17444-2.17924c4.28092 0 7.49167 1.38679 9.59253 4.12076 2.10083 2.7736 3.13152 6.81512 3.13152 12.2038v26.42833h-7.05572v-25.4774c0-3.92263-.63418-6.77547-1.86284-8.51888a6.68579 6.68579 0 0 0 -5.82708-2.61509c-3.14327 0-6.63152 2.13962-10.46443 6.4585v30.15287h-7.03192v-25.4774c0-3.92263-.6342-6.77547-1.88693-8.51888q-1.88454-2.6151-5.91808-2.61509c-3.13122 0-6.61956 2.13962-10.46452 6.4585v30.15287h-7.024v-41.76632zm-39.02823 30.351q0 3.60171 2.10083 5.15094a8.57791 8.57791 0 0 0 5.19266 1.53736 12.16624 12.16624 0 0 0 5.7-1.41453 27.66035 27.66035 0 0 0 5.708-4.16038v-11.56987a73.65419 73.65419 0 0 0 -8.8394 1.62453 23.41716 23.41716 0 0 0 -5.78726 2.23077 8.31161 8.31161 0 0 0 -3.13144 2.95979 7.306 7.306 0 0 0 -.9434 3.64529zm-6.95262.51509a11.54974 11.54974 0 0 1 6.144-10.5q6.12421-3.64925 19.50222-5.10342a18.90987 18.90987 0 0 0 -.38051-3.85924 9.21136 9.21136 0 0 0 -1.37152-3.34415 7.08885 7.08885 0 0 0 -2.61613-2.35757 8.58514 8.58514 0 0 0 -4.20171-.89942 16.83573 16.83573 0 0 0 -6.81786 1.37094 32.49349 32.49349 0 0 0 -5.589 3.09058l-2.81433-4.88945a44.984 44.984 0 0 1 7.135-3.64529 23.87809 23.87809 0 0 1 9.27545-1.7553q7.67008 0 11.05918 4.67547 3.44855 4.66556 3.44856 12.46926v25.55664h-5.82689l-.59458-4.97661h-.15855a34.34759 34.34759 0 0 1 -6.46109 4.23965 15.90585 15.90585 0 0 1 -7.33317 1.75924 12.65486 12.65486 0 0 1 -8.76015-3.09059q-3.47825-3.07868-3.48821-8.74076zm-25.72545-25.12083h-6.17569v-5.31742l6.51657-.42792.83242-11.661h5.9062v11.661h11.2177v5.74528h-11.25738v23.15164a10.89113 10.89113 0 0 0 1.38735 5.94339c.9117 1.38681 2.61616 2.1 4.99446 2.1a8.88526 8.88526 0 0 0 2.37833-.35661 20.28487 20.28487 0 0 0 2.31091-.79243l1.37548 5.30941a38.26079 38.26079 0 0 1 -3.726 1.06982 17.39985 17.39985 0 0 1 -3.99161.47547 13.92167 13.92167 0 0 1 -5.62869-1.03018 9.83231 9.83231 0 0 1 -3.68639-2.85284 11.7022 11.7022 0 0 1 -2.02158-4.39812 25.36769 25.36769 0 0 1 -.59458-5.66605v-23.0604zm-165.11876-20.54833a79.16171 79.16171 0 0 0 -16.232 48.26043c-.00795 44.15555 36.0434 80.07748 80.3396 80.07748a80.8426 80.8426 0 0 0 64.51587-32.33213c5.66039-7.5917-2.67958-12.53661-10.29417-18.17889-7.6106-5.64225-11.65375-9.84623-17.28245-2.25848a45.9302 45.9302 0 1 1 -50.1429-71.22973c9.07726-2.70623 7.05569-11.08246 4.32062-20.14418-2.73507-9.034-5.11339-15.334-14.19062-12.63965a80.83168 80.83168 0 0 0 -41.10529 28.48874zm105.6489 50.6378v-50.28912c0-10.14342-7.464-10.57926-16.672-10.57926-9.212 0-16.68.43584-16.68 10.57926v50.28912c0 10.14342 7.46794 10.57927 16.68 10.57927 9.20805 0 16.676-.43585 16.676-10.57927zm37.49815-118.0558c-7.789-6.02267-13.01733-10.41286-19.0543-2.65474-7.682 9.86605-21.17892 12.95662-62.07412-4.05341-45.75488-19.04266-78.655.91132-89.85289 27.49817-3.81324 9.05377 2.51309 10.68623 11.59827 14.48207 2.2594.951 4.24134 1.62454 6.50074 2.33775 6.06472 1.684 11.93124 3.7483 14.82487-3.05886 5.86651-13.868 22.39583-17.10909 43.24575-8.44757 23.22826 9.656 40.154 14.21663 54.89955 14.77926 20.731.80435 37.26032-6.514 49.11227-21.74494 6.06472-7.75813-1.34773-13.11511-9.11688-19.13774z" fill-rule="evenodd"/>
</svg>