<?xml version="1.0" encoding="UTF-8" standalone="no"?>
<svg width="550px" height="155px" viewBox="0 0 550 155" version="1.1" xmlns="http://www.w3.org/2000/svg" xmlns:xlink="http://www.w3.org/1999/xlink">
    <!-- Generator: Sketch 3.6.1 (26313) - http://www.bohemiancoding.com/sketch -->
    <title>Newsweek</title>
    <desc>Created with Sketch.</desc>
    <defs/>
    <g id="Page-1" stroke="none" stroke-width="1" fill="none" fill-rule="evenodd">
        <g id="Newsweek">
            <g id="Group-18">
                <path d="M549.0717,154.5391 L549.0717,141.3141 L549.0717,140.6541 L549.0717,0.9141 L0.0717,0.9141 L0.0717,141.3141 L456.0967,141.3141 L465.6217,154.5391 L549.0717,154.5391 Z" id="Fill-1" fill="#DB322A"/>
                <text id="SRBIJA" font-family="LucidaGrande, Lucida Grande" font-size="9.9113" font-weight="normal" letter-spacing="0.13764289" fill="#FFFFFF">
                    <tspan x="399.6811" y="42.8041213">S</tspan>
                    <tspan x="405.156714" y="42.8041213" letter-spacing="0.11782029">R</tspan>
                    <tspan x="411.541689" y="42.8041213" letter-spacing="0.12574933">B</tspan>
                    <tspan x="417.368371" y="42.8041213" letter-spacing="0.14061628">I</tspan>
                    <tspan x="420.364294" y="42.8041213" letter-spacing="-0.014">JA</tspan>
                </text>
                <g id="Group-12" transform="translate(52.000000, 35.000000)" fill="#FFFFFF">
                    <path d="M80.6324,39.0026 L96.3664,39.0026 C96.3664,32.2366 91.9614,29.5376 88.6704,29.5376 C84.8734,29.5376 80.8994,32.6766 80.6324,39.0026 L80.6324,39.0026 Z M314.5394,38.8976 L330.2744,38.8976 C330.2744,32.1316 325.8694,29.4326 322.5784,29.4326 C318.7814,29.4326 314.8074,32.5686 314.5394,38.8976 L314.5394,38.8976 Z M362.0364,38.7916 L377.7694,38.7916 C377.7694,32.0256 373.3654,29.3266 370.0734,29.3266 C366.2774,29.3266 362.3034,32.4636 362.0364,38.7916 L362.0364,38.7916 Z M447.1614,64.6936 C447.2484,64.6256 447.2934,64.5356 447.2934,64.4286 C447.2934,64.3186 447.2504,64.2326 447.1664,64.1626 C447.0824,64.0946 446.9414,64.0596 446.7404,64.0596 L446.3944,64.0596 L446.3944,64.7956 L446.7124,64.7956 C446.9244,64.7956 447.0734,64.7626 447.1614,64.6936 L447.1614,64.6936 Z M447.2484,65.2096 C447.3644,65.2506 447.4464,65.3016 447.5004,65.3486 C447.5764,65.4146 447.6534,65.5186 447.7354,65.6486 C447.7404,65.6586 447.9024,65.9476 448.2164,66.5126 L447.3424,66.5126 C447.0604,65.9436 446.8704,65.6066 446.7734,65.4946 C446.6774,65.3856 446.5794,65.3306 446.4854,65.3306 C446.4604,65.3306 446.4324,65.3326 446.3944,65.3406 L446.3944,66.5126 L445.6944,66.5126 L445.6944,63.5416 L446.9814,63.5416 C447.3564,63.5416 447.5824,63.6176 447.7514,63.7696 C447.9194,63.9206 448.0034,64.1256 448.0034,64.3776 C448.0034,64.5766 447.9384,64.7486 447.8114,64.8936 C447.6824,65.0376 447.5254,65.1436 447.2484,65.2096 L447.2484,65.2096 Z M448.4274,66.6116 C448.8654,66.1746 449.0844,65.6466 449.0844,65.0276 C449.0844,64.4086 448.8654,63.8796 448.4274,63.4436 C447.9924,63.0046 447.4634,62.7856 446.8454,62.7856 C446.2254,62.7856 445.6984,63.0046 445.2584,63.4436 C444.8234,63.8796 444.6034,64.4086 444.6034,65.0276 C444.6034,65.6466 444.8234,66.1746 445.2584,66.6116 C445.6984,67.0476 446.2254,67.2696 446.8454,67.2696 C447.4634,67.2696 447.9924,67.0476 448.4274,66.6116 L448.4274,66.6116 Z M449.6214,65.0276 C449.6214,65.5256 449.4964,65.9866 449.2504,66.4166 C449.0004,66.8466 448.6594,67.1856 448.2354,67.4346 C447.8024,67.6826 447.3384,67.8056 446.8434,67.8056 C446.3484,67.8056 445.8864,67.6826 445.4564,67.4346 C445.0254,67.1856 444.6884,66.8466 444.4384,66.4166 C444.1934,65.9866 444.0644,65.5256 444.0644,65.0276 C444.0644,64.5316 444.1934,64.0686 444.4384,63.6376 C444.6884,63.2056 445.0254,62.8696 445.4564,62.6216 C445.8864,62.3716 446.3484,62.2486 446.8434,62.2486 C447.3384,62.2486 447.8024,62.3716 448.2354,62.6216 C448.6594,62.8696 449.0004,63.2056 449.2504,63.6376 C449.4964,64.0686 449.6214,64.5316 449.6214,65.0276 L449.6214,65.0276 Z M443.1604,67.6896 L428.6684,67.6896 L413.6414,48.0276 L408.7294,51.6786 L408.7294,55.4866 L413.0154,55.4866 L413.0154,67.6896 L390.7694,67.6896 L390.7694,55.5336 L394.9884,55.5336 L394.9884,12.7576 L388.6624,12.7576 L388.6624,0.7746 L408.7294,0.7746 L408.7294,39.2526 L418.7834,31.9006 L412.4564,31.9006 L412.4564,19.6356 L439.5514,19.6356 L439.5514,31.9006 L435.3324,31.9006 L424.7444,39.7686 L436.8354,55.5226 L443.1604,55.5226 L443.1604,67.6896 Z M390.9064,43.6026 C390.9064,44.5826 390.9064,45.5626 390.8174,46.6336 L362.0074,46.6336 C361.2644,55.8896 364.7074,58.6916 370.0414,58.6916 C374.4964,58.6916 377.8044,55.7876 377.8044,51.1766 L390.2224,51.1766 C389.9554,59.2856 385.6494,68.6416 369.2544,68.6416 C352.7684,68.6416 345.1064,56.7896 345.1064,43.5146 C345.1064,31.6626 353.0364,19.0086 368.9864,19.0086 C384.2234,19.0086 390.9064,29.6136 390.9064,43.6026 L390.9064,43.6026 Z M343.4104,43.7076 C343.4104,44.6876 343.4104,45.6666 343.3214,46.7366 L314.5114,46.7366 C313.7694,55.9946 317.2124,58.7956 322.5444,58.7956 C326.9994,58.7956 330.3074,55.8936 330.3074,51.2816 L342.7254,51.2816 C342.4584,59.3916 338.1534,68.7466 321.7574,68.7466 C305.2734,68.7466 297.6094,56.8946 297.6094,43.6196 C297.6094,31.7686 305.5404,19.1146 321.4904,19.1146 C336.7274,19.1146 343.4104,29.7196 343.4104,43.7076 L343.4104,43.7076 Z M298.9494,31.8166 L294.7304,31.8166 L284.0474,67.7836 L269.8564,67.7836 L263.1384,48.0806 L257.1974,67.7836 L242.7184,67.7836 L230.7274,31.8166 L226.5094,31.8166 L226.5094,19.6356 L251.5934,19.6356 L251.5934,31.8166 L245.2654,31.8166 L251.7974,50.9696 L260.4034,19.6356 L268.1164,19.6356 L278.6814,50.9676 L284.3004,31.8166 L277.9734,31.8166 L277.9734,19.6356 L298.9494,19.6356 L298.9494,31.8166 Z M198.8204,32.3166 C198.8204,34.0126 200.1574,35.1706 204.8794,36.6846 L211.6524,38.9126 C217.8894,40.9616 225.3744,45.5966 225.3744,54.0606 C225.3744,64.0416 217.8894,68.8526 208.7114,68.8526 C201.4054,68.8526 195.6304,65.2876 194.1164,63.6846 L194.0974,67.7836 L181.8354,67.7836 L181.8354,51.1196 L193.8304,51.1196 C194.1874,56.5576 198.9994,59.4066 203.4544,59.4066 C207.0184,59.4066 208.7114,57.8936 208.7114,56.0226 C208.7114,53.7936 207.3744,52.5456 201.3154,50.5866 L195.3454,48.6236 C189.2864,46.6646 182.4254,42.2096 182.4254,34.1006 C182.4254,24.2086 191.1574,19.2206 198.6424,19.2206 C206.3944,19.2206 210.0994,21.3746 211.9704,23.5146 L212.0084,19.7716 L224.2934,19.7716 L224.2934,34.8306 L211.6524,34.8306 C211.4734,30.7316 207.4644,28.9326 203.4544,28.9326 C200.3354,28.9326 198.8204,30.3576 198.8204,32.3166 L198.8204,32.3166 Z M181.1914,31.8166 L176.9724,31.8166 L166.2894,67.7836 L152.0984,67.7836 L145.3804,48.0806 L139.4394,67.7836 L124.9594,67.7836 L112.9704,31.8166 L108.7514,31.8166 L108.7514,19.6356 L133.8344,19.6356 L133.8344,31.8166 L127.5084,31.8166 L134.0394,50.9696 L142.6454,19.6356 L150.3584,19.6356 L160.9224,50.9676 L166.5424,31.8166 L160.2164,31.8166 L160.2164,19.6356 L181.1914,19.6356 L181.1914,31.8166 Z M109.5024,43.8126 C109.5024,44.7936 109.5024,45.7736 109.4144,46.8446 L80.6034,46.8446 C79.8614,56.1006 83.3044,58.9026 88.6374,58.9026 C93.0924,58.9026 96.4004,55.9986 96.4004,51.3876 L108.8184,51.3876 C108.5514,59.4966 104.2454,68.8526 87.8504,68.8526 C71.3654,68.8526 63.7024,57.0006 63.7024,43.7256 C63.7024,31.8736 71.6324,19.2206 87.5824,19.2206 C102.8194,19.2206 109.5024,29.8246 109.5024,43.8126 L109.5024,43.8126 Z M67.4284,12.9826 L61.1014,12.9826 L61.1014,67.7836 L49.4314,67.7836 L20.9174,30.4476 L20.9174,55.5746 L27.2444,55.5746 L27.2444,67.7836 L0.8714,67.7836 L0.8714,55.5746 L7.1974,55.5746 L7.1974,12.9826 L0.8714,12.9826 L0.8714,0.7746 L20.8924,0.7746 L47.3824,35.5256 L47.3824,12.9826 L41.0554,12.9826 L41.0554,0.7746 L67.4284,0.7746 L67.4284,12.9826 Z" id="Fill-10"/>
                </g>
            </g>
        </g>
    </g>
</svg>