<?xml version="1.0" encoding="UTF-8" standalone="no"?>
<svg width="284px" height="68px" viewBox="0 0 284 68" version="1.1" xmlns="http://www.w3.org/2000/svg" xmlns:xlink="http://www.w3.org/1999/xlink">
    <!-- Generator: Sketch 3.7 (28169) - http://www.bohemiancoding.com/sketch -->
    <title>spiegel</title>
    <desc>Created with Sketch.</desc>
    <defs>
        <polygon id="path-1" points="111.641 0.287 0.06 0.287 0.06 38.314 223.222 38.314 223.222 0.287 111.641 0.287"/>
    </defs>
    <g id="Page-1" stroke="none" stroke-width="1" fill="none" fill-rule="evenodd">
        <g id="spiegel">
            <path d="M116.771,21.672 L100.94,21.672 L100.94,5.083 C100.94,2.235 102.361,0.287 105.825,0.287 L119.835,0.287 C122.305,0.287 123.928,1.802 123.928,4.65 L123.928,11.97 L116.771,11.97 L116.771,6.579 L107.719,6.579 L107.719,15.38 L123.928,15.38 L123.928,33.625 C123.928,36.527 122.25,38.314 118.86,38.314 L105.771,38.314 C102.436,38.314 100.94,36.419 100.94,33.842 L100.94,25.115 L107.719,25.115 L107.719,32.023 L116.771,32.023 L116.771,21.672" id="Fill-1" fill="#DE492A"/>
            <polyline id="Fill-2" fill="#DE492A" points="55.324 11.97 55.324 0.287 29.413 0.287 29.413 6.579 32.749 6.579 32.749 32.023 29.413 32.023 29.413 38.314 55.324 38.314 55.324 25.277 48.092 25.277 48.092 32.023 39.419 32.023 39.419 21.672 51.393 21.672 51.393 15.38 39.419 15.38 39.419 6.579 48.092 6.579 48.092 11.97 55.324 11.97"/>
            <polyline id="Fill-3" fill="#DE492A" points="197.073 11.97 197.073 0.287 171.163 0.287 171.163 6.579 174.498 6.579 174.498 32.023 171.163 32.023 171.163 38.314 197.073 38.314 197.073 25.277 189.841 25.277 189.841 32.023 181.168 32.023 181.168 21.672 193.143 21.672 193.143 15.38 181.168 15.38 181.168 6.579 189.841 6.579 189.841 11.97 197.073 11.97"/>
            <polyline id="Fill-4" fill="#DE492A" points="252.976 11.97 252.976 0.287 227.065 0.287 227.065 6.579 230.4 6.579 230.4 32.023 227.065 32.023 227.065 38.314 252.976 38.314 252.976 25.277 245.744 25.277 245.744 32.023 237.07 32.023 237.07 21.672 249.046 21.672 249.046 15.38 237.07 15.38 237.07 6.579 245.744 6.579 245.744 11.97 252.976 11.97"/>
            <polyline id="Fill-5" fill="#DE492A" points="270.14 6.579 270.14 0.287 257.43 0.287 257.43 6.579 260.766 6.579 260.766 32.023 257.43 32.023 257.43 38.314 283.341 38.314 283.341 25.277 276.108 25.277 276.108 32.023 267.436 32.023 267.436 6.579 270.14 6.579"/>
            <polyline id="Fill-6" fill="#DE492A" points="168.369 6.579 165.062 6.579 165.062 32.023 168.369 32.023 168.369 38.314 155.201 38.314 155.201 32.023 158.164 32.023 158.164 6.579 155.201 6.579 155.201 0.287 168.369 0.287 168.369 6.579"/>
            <g id="Group-10">
                <mask id="mask-2" fill="white">
                    <use xlink:href="#path-1"/>
                </mask>
                <g id="Clip-8"/>
                <path d="M216.512,21.672 L210.252,21.672 L210.252,15.38 L223.222,15.38 L223.222,38.314 L204.311,38.314 C201.622,38.314 200.452,36.183 200.452,34.503 L200.452,4.417 C200.452,2.431 201.509,0.287 204.551,0.287 L219.17,0.287 C220.899,0.287 223.222,1.488 223.222,4.321 L223.222,11.97 L216.512,11.97 L216.512,6.579 L207.594,6.579 L207.594,32.023 L216.512,32.023 L216.512,21.672" id="Fill-7" fill="#DE492A" mask="url(#mask-2)"/>
                <path d="M0,0.287 L21.494,0.287 C23.732,0.287 25.546,2.101 25.546,4.339 L25.546,34.261 C25.546,36.499 23.732,38.314 21.494,38.314 L0,38.314 L0,32.023 L3.245,32.023 L3.245,6.579 L0,6.579 L0,0.287 L0,0.287 Z M10.02,32.023 L18.362,32.023 L18.362,6.579 L10.02,6.579 L10.02,32.023 Z" id="Fill-9" fill="#DE492A" mask="url(#mask-2)"/>
            </g>
            <path d="M137.485,15.38 L146.449,15.38 L146.449,6.579 L137.485,6.579 L137.485,15.38 Z M127.515,0.287 L127.515,6.579 L130.6,6.579 L130.6,32.023 L127.515,32.023 L127.515,38.314 L140.682,38.314 L140.682,32.023 L137.485,32.023 L137.485,21.672 L148.584,21.672 C151.445,21.672 153.606,19.881 153.606,17.411 L153.606,4.858 C153.606,1.437 151.342,0.287 149.035,0.287 L127.515,0.287 L127.515,0.287 Z" id="Fill-11" fill="#DE492A"/>
            <path d="M58.468,0.287 L58.468,6.579 L61.917,6.579 L61.917,32.023 L58.468,32.023 L58.468,38.314 L71.748,38.314 L71.748,32.023 L68.907,32.023 L68.907,21.672 L77.807,21.672 L77.807,32.023 L74.265,32.023 L74.265,38.314 L87.73,38.314 L87.73,32.023 L84.704,32.023 L84.704,23.588 C84.704,18.696 81.022,18.649 81.022,18.649 C81.022,18.649 84.704,18.353 84.704,15.38 L84.704,4.765 C84.704,1.549 82.924,0.287 80.226,0.287 L58.468,0.287 L58.468,0.287 Z M68.907,15.38 L77.807,15.38 L77.807,6.579 L68.907,6.579 L68.907,15.38 Z" id="Fill-12" fill="#DE492A"/>
            <polyline id="Fill-13" fill="#6F8F9D" points="38.606 67.768 30.77 54.35 30.77 67.768 29.142 67.768 29.142 52.35 31.56 52.35 38.885 64.907 38.885 52.35 40.49 52.35 40.49 67.768 38.606 67.768"/>
            <path d="M51.784,62.047 C51.784,58.698 50.552,57.257 48.552,57.257 C46.343,57.257 45.227,58.931 45.227,61.768 C45.227,65.116 46.459,66.559 48.458,66.559 C50.668,66.559 51.784,64.884 51.784,62.047 L51.784,62.047 Z M43.273,62.07 C43.273,58.513 45.041,55.814 48.668,55.814 C52.11,55.814 53.737,58.001 53.737,61.745 C53.737,65.303 51.97,68 48.342,68 C44.901,68 43.273,65.814 43.273,62.07 L43.273,62.07 Z" id="Fill-14" fill="#6F8F9D"/>
            <path d="M62.013,67.698 C61.408,67.884 60.734,68 59.943,68 C57.641,68 56.827,67.047 56.827,64.628 L56.827,57.489 L54.804,57.489 L54.804,56.047 L56.827,56.047 L56.827,52.722 L58.641,52.489 L58.641,56.047 L61.873,56.047 L61.688,57.489 L58.641,57.489 L58.641,64.466 C58.641,65.838 58.92,66.582 60.292,66.582 C60.804,66.582 61.408,66.465 61.757,66.326 L62.013,67.698" id="Fill-15" fill="#6F8F9D"/>
            <path d="M76.991,62 C76.177,59.233 75.293,56.513 74.409,54.048 C73.549,56.606 72.688,59.303 71.898,62 L76.991,62 L76.991,62 Z M78.595,67.768 C78.2,66.326 77.805,64.884 77.409,63.466 L71.479,63.466 C71.061,64.931 70.688,66.349 70.316,67.768 L68.526,67.768 C69.898,62.419 71.596,57.28 73.34,52.35 L75.711,52.35 C77.665,57.466 79.316,62.628 80.688,67.768 L78.595,67.768 L78.595,67.768 Z" id="Fill-16" fill="#6F8F9D"/>
            <path d="M82.84,67.768 L82.84,57.489 L80.771,57.489 L80.771,56.047 L82.84,56.047 L82.84,55.187 C82.84,52.699 83.701,51.443 86.445,51.443 C86.98,51.443 87.585,51.513 88.049,51.606 L87.724,53.001 C87.422,52.932 86.84,52.861 86.329,52.861 C84.956,52.861 84.654,53.582 84.654,54.932 L84.654,56.047 L87.515,56.047 L87.352,57.489 L84.654,57.489 L84.654,67.768 L82.84,67.768" id="Fill-17" fill="#6F8F9D"/>
            <path d="M89.227,67.768 L89.227,56.047 L90.762,56.047 L90.924,57.791 C92.064,56.536 93.204,55.814 94.366,55.814 C94.576,55.814 94.785,55.838 94.994,55.885 L94.855,57.582 C94.622,57.559 94.389,57.535 94.18,57.535 C93.087,57.535 92.39,57.791 91.04,59.233 L91.04,67.768 L89.227,67.768" id="Fill-18" fill="#6F8F9D"/>
            <path d="M103.948,62.21 L102.925,62.21 C99.6,62.21 98.041,62.628 98.041,64.559 C98.041,65.721 98.763,66.559 100.274,66.559 C101.46,66.559 102.6,66 103.948,64.768 L103.948,62.21 L103.948,62.21 Z M104.274,67.768 L104.134,66.232 C102.855,67.349 101.623,68 99.925,68 C97.391,68 96.112,66.744 96.112,64.744 C96.112,62.163 98.297,60.861 103.064,60.861 L103.948,60.861 L103.948,60.001 C103.948,57.931 103.25,57.233 101.53,57.233 C100.018,57.233 98.483,57.722 97.228,58.489 L96.646,57.187 C98.251,56.28 99.925,55.814 101.623,55.814 C104.367,55.814 105.762,56.652 105.762,59.954 L105.762,64.954 C105.762,65.954 105.855,67 105.925,67.768 L104.274,67.768 L104.274,67.768 Z" id="Fill-19" fill="#6F8F9D"/>
            <path d="M108.813,67.768 L110.626,67.768 L110.626,56.047 L108.813,56.047 L108.813,67.768 Z M108.719,53.978 L110.719,53.978 L110.719,51.932 L108.719,51.932 L108.719,53.978 Z" id="Fill-20" fill="#6F8F9D"/>
            <path d="M121.276,57.769 C120.696,57.489 119.719,57.28 118.72,57.28 C116.021,57.28 115.091,59.21 115.091,62.094 C115.091,64.698 115.835,66.535 117.858,66.535 C119.021,66.535 120.067,65.907 121.276,64.838 L121.276,57.769 L121.276,57.769 Z M121.556,67.768 L121.417,66.326 C120.23,67.349 119.044,68 117.579,68 C114.463,68 113.161,65.744 113.161,62.256 C113.161,58.629 114.696,55.838 118.975,55.838 C119.673,55.838 120.463,55.908 121.276,56.094 L121.276,51.582 L123.091,51.582 L123.091,67.768 L121.556,67.768 L121.556,67.768 Z" id="Fill-21" fill="#6F8F9D"/>
            <path d="M140.093,62.047 C140.093,58.698 138.86,57.257 136.86,57.257 C134.651,57.257 133.534,58.931 133.534,61.768 C133.534,65.116 134.767,66.559 136.767,66.559 C138.976,66.559 140.093,64.884 140.093,62.047 L140.093,62.047 Z M131.581,62.07 C131.581,58.513 133.349,55.814 136.976,55.814 C140.418,55.814 142.046,58.001 142.046,61.745 C142.046,65.303 140.278,68 136.65,68 C133.209,68 131.581,65.814 131.581,62.07 L131.581,62.07 Z" id="Fill-22" fill="#6F8F9D"/>
            <path d="M145.183,67.768 L145.183,57.489 L143.112,57.489 L143.112,56.047 L145.183,56.047 L145.183,55.187 C145.183,52.699 146.042,51.443 148.786,51.443 C149.321,51.443 149.926,51.513 150.392,51.606 L150.065,53.001 C149.763,52.932 149.182,52.861 148.67,52.861 C147.298,52.861 146.995,53.582 146.995,54.932 L146.995,56.047 L149.856,56.047 L149.693,57.489 L146.995,57.489 L146.995,67.768 L145.183,67.768" id="Fill-23" fill="#6F8F9D"/>
            <path d="M162.834,67.698 C162.229,67.884 161.555,68 160.765,68 C158.462,68 157.647,67.047 157.647,64.628 L157.647,57.489 L155.625,57.489 L155.625,56.047 L157.647,56.047 L157.647,52.722 L159.462,52.489 L159.462,56.047 L162.694,56.047 L162.509,57.489 L159.462,57.489 L159.462,64.466 C159.462,65.838 159.741,66.582 161.112,66.582 C161.624,66.582 162.229,66.465 162.578,66.326 L162.834,67.698" id="Fill-24" fill="#6F8F9D"/>
            <path d="M172.271,67.768 L172.271,60.466 C172.271,58.047 171.55,57.257 170.341,57.257 C169.132,57.257 168.108,57.791 166.644,58.978 L166.644,67.768 L164.83,67.768 L164.83,51.582 L166.644,51.582 L166.644,57.373 C167.829,56.489 168.993,55.814 170.573,55.814 C172.782,55.814 174.085,56.954 174.085,60.094 L174.085,67.768 L172.271,67.768" id="Fill-25" fill="#6F8F9D"/>
            <path d="M184.958,60.745 C184.981,58.675 184.052,57.187 181.911,57.187 C179.633,57.187 178.726,58.931 178.54,60.745 L184.958,60.745 L184.958,60.745 Z M187.167,66.116 C185.609,67.303 184.098,68 181.865,68 C178.237,68 176.587,65.86 176.587,62.047 C176.587,58.559 178.308,55.814 182.005,55.814 C185.702,55.814 187.12,58.187 186.888,62.094 L178.493,62.094 C178.517,64.628 179.284,66.512 182.005,66.512 C183.772,66.512 185.261,65.744 186.261,64.907 L187.167,66.116 L187.167,66.116 Z" id="Fill-26" fill="#6F8F9D"/>
            <polyline id="Fill-27" fill="#6F8F9D" points="198.634 67.768 198.634 54.024 194.263 54.024 194.263 52.35 205.006 52.35 204.866 54.024 200.563 54.024 200.563 67.768 198.634 67.768"/>
            <path d="M205.316,67.768 L205.316,56.047 L206.851,56.047 L207.014,57.791 C208.153,56.536 209.293,55.814 210.456,55.814 C210.665,55.814 210.874,55.838 211.083,55.885 L210.944,57.582 C210.712,57.559 210.479,57.535 210.27,57.535 C209.177,57.535 208.479,57.791 207.13,59.233 L207.13,67.768 L205.316,67.768" id="Fill-28" fill="#6F8F9D"/>
            <path d="M220.606,67.768 L220.468,66.326 C219.142,67.349 217.979,68 216.397,68 C214.188,68 212.886,66.86 212.886,63.722 L212.886,56.047 L214.7,56.047 L214.7,63.35 C214.7,65.768 215.421,66.559 216.63,66.559 C217.839,66.559 218.862,66.023 220.327,64.838 L220.327,56.047 L222.142,56.047 L222.142,67.768 L220.606,67.768" id="Fill-29" fill="#6F8F9D"/>
            <path d="M231.166,67.698 C230.562,67.884 229.887,68 229.097,68 C226.794,68 225.979,67.047 225.979,64.628 L225.979,57.489 L223.957,57.489 L223.957,56.047 L225.979,56.047 L225.979,52.722 L227.794,52.489 L227.794,56.047 L231.026,56.047 L230.841,57.489 L227.794,57.489 L227.794,64.466 C227.794,65.838 228.073,66.582 229.444,66.582 C229.956,66.582 230.562,66.465 230.91,66.326 L231.166,67.698" id="Fill-30" fill="#6F8F9D"/>
            <path d="M240.604,67.768 L240.604,60.466 C240.604,58.047 239.882,57.257 238.673,57.257 C237.464,57.257 236.44,57.791 234.976,58.978 L234.976,67.768 L233.162,67.768 L233.162,51.582 L234.976,51.582 L234.976,57.373 C236.161,56.489 237.325,55.814 238.905,55.814 C241.114,55.814 242.417,56.954 242.417,60.094 L242.417,67.768 L240.604,67.768" id="Fill-31" fill="#6F8F9D"/>
        </g>
    </g>
</svg>